<svg width="64" height="64" xmlns="http://www.w3.org/2000/svg" xmlns:xlink="http://www.w3.org/1999/xlink" xml:space="preserve" overflow="hidden"><defs><clipPath id="clip0"><rect x="605" y="80" width="64" height="64"/></clipPath></defs><g clip-path="url(#clip0)" transform="translate(-605 -80)"><path d="M656.927 116.944 655.891 117.567 659.104 119.495 652.596 123.401 649.383 121.472 648.345 122.095 651.559 124.023 645.271 127.796 642.057 125.868 641.02 126.491 644.233 128.419 637.041 132.735 629.849 128.419 632.988 126.536 631.952 125.913 628.813 127.797 622.524 124.024 625.663 122.14 624.627 121.517 621.488 123.401 614.972 119.492 618.111 117.608 617.075 116.987 606.633 123.252C606.22 123.502 606.088 124.04 606.339 124.453 606.412 124.574 606.513 124.675 606.633 124.748L626.953 136.943 627.077 137.016 635.929 142.328C636.613 142.73 637.46 142.729 638.143 142.325L667.452 124.739C667.859 124.493 667.99 123.963 667.744 123.556 667.672 123.437 667.572 123.336 667.452 123.264 666.077 122.436 661.801 119.869 656.927 116.944ZM652.596 124.645 653.965 125.467 651.227 125.467ZM631.3 130.533 633.967 132.133 623.66 132.133 626.327 130.533ZM628.813 129.04 629.523 129.467 628.104 129.467ZM607.46 124 613.936 120.113 620.452 124.023 613.975 127.909ZM615.012 128.532 621.488 124.645 627.777 128.419 621.3 132.305ZM625.457 134.8 624.791 134.4 622.791 133.2 635.743 133.2 636.005 133.357 633.6 134.8ZM628.812 136.813 627.235 135.867 631.823 135.867 629.529 137.243ZM637.593 141.411C637.249 141.614 636.822 141.615 636.477 141.413L630.565 137.867 637.041 133.98 643.509 137.863ZM644.547 137.239 638.077 133.357 645.271 129.041 651.74 132.923ZM652.776 132.301 652.052 131.867 653.5 131.867ZM655.277 130.8 650.275 130.8 647.608 129.2 657.944 129.2ZM646.783 128.133 649.449 126.533 655.743 126.533 658.409 128.133ZM660.103 127.907 653.632 124.023 660.141 120.117 666.608 124.001ZM628.867 106.8 628.867 109.333 627.8 109.333 627.8 107.867 623.8 107.867 623.8 103.867 620.867 103.867 620.867 109.333 619.8 109.333 619.8 102.8 621.133 102.8 621.133 98.504 619.687 95.8667 616.867 95.8667 616.867 97.4667 618.333 97.4667 618.333 98.5333 616.867 98.5333 616.867 100.133 618.333 100.133 618.333 101.2 616.867 101.2 616.867 106.667 615.8 106.667 615.8 94.8 620.317 94.8 622.2 98.3667 622.2 102.8 624.867 102.8 624.867 106.8ZM667.368 105.92 658.867 100.817 652.579 93.4667 649.888 93.4667 645.667 89.2453 630.277 104.636C630.567 104.845 630.821 105.1 631.031 105.389L632.249 104.172C632.677 104.592 633.13 104.987 633.604 105.353 633.89 105.598 634.152 105.871 634.385 106.167 635.145 107.311 636.427 107.997 637.8 107.996 638.239 107.993 638.676 107.946 639.105 107.856 640.491 107.55 641.634 106.574 642.152 105.252 642.672 103.91 643.877 102.954 645.301 102.751 645.811 102.644 646.331 102.59 646.852 102.591 648.548 102.602 650.236 102.813 651.883 103.22 654.492 103.772 656.76 104.233 659.908 102.661L662.835 104.429C660.357 106.912 656.95 108.241 653.445 108.092L652.625 108.089C646.092 108.089 645.095 111.076 644.295 113.476 643.739 115.141 643.371 116.241 641.364 116.241 641.141 116.241 640.919 116.232 640.703 116.223 640.484 116.215 640.272 116.207 639.983 116.207 636.983 116.397 633.989 115.771 631.317 114.395 630.261 113.764 629.059 113.417 627.828 113.388 626.809 113.457 625.79 113.512 624.769 113.553L623.259 113.549C621.91 113.533 620.562 113.606 619.223 113.767L607.392 106.668 613 103.296 613 102.056C610.848 103.345 608.698 104.637 606.549 105.931 606.142 106.171 606.006 106.697 606.247 107.105 606.32 107.229 606.423 107.332 606.547 107.405L635.859 124.992C636.541 125.396 637.389 125.397 638.072 124.995L667.367 107.413C667.78 107.163 667.912 106.625 667.661 106.212 667.588 106.091 667.487 105.99 667.367 105.917ZM645.667 90.7533 649.445 94.532 652.088 94.532 654.413 97.2507 653.499 97.296C652.912 97.3101 652.325 97.3168 651.737 97.316 649.764 97.316 649.489 97.1427 649.248 96.992 648.816 96.7187 648.399 96.5387 646.623 96.5387 645.552 96.5672 644.496 96.7988 643.512 97.2213 643.127 97.3957 642.718 97.5104 642.299 97.5613 641.833 97.5709 641.37 97.4991 640.929 97.3493L639.569 96.8507ZM652.103 102.176C650.38 101.756 648.614 101.537 646.841 101.523 646.253 101.521 645.667 101.582 645.092 101.704 643.354 101.957 641.88 103.111 641.217 104.737 640.661 105.747 640.223 106.544 638.895 106.809 637.503 107.274 635.974 106.722 635.199 105.476 634.921 105.124 634.607 104.802 634.264 104.513 633.823 104.173 633.402 103.806 633.004 103.415L638.737 97.6813 640.563 98.3507C641.121 98.5452 641.709 98.6391 642.3 98.628 642.849 98.5857 643.386 98.4476 643.887 98.22 644.752 97.8444 645.68 97.6364 646.623 97.6067 648.223 97.6067 648.455 97.7533 648.679 97.8933 649.148 98.1893 649.613 98.3827 651.737 98.3827 652.113 98.3827 653.165 98.3773 653.548 98.3613L655.289 98.2747 658.113 101.577 658.808 101.996C656.66 102.824 654.292 102.887 652.103 102.176ZM637.523 124.08C637.178 124.282 636.752 124.281 636.408 124.079L620.76 114.689C621.493 114.641 622.315 114.616 623.259 114.616L624.789 114.62C625.831 114.58 627.008 114.507 627.555 114.473L627.828 114.455C628.893 114.486 629.932 114.794 630.841 115.349 632.472 116.163 634.704 117.273 640.071 117.273 640.257 117.273 640.457 117.281 640.66 117.289 640.889 117.299 641.127 117.308 641.364 117.308 644.14 117.308 644.732 115.532 645.305 113.815 646.071 111.524 646.86 109.156 652.625 109.156L653.532 109.157C657.384 109.304 661.113 107.787 663.769 104.993L666.54 106.667ZM635.443 97.3973C632.914 97.5755 630.423 98.1051 628.04 98.9707 627.077 99.3963 626.049 99.6597 625 99.7507L625 98.6667C625.898 98.5857 626.777 98.3601 627.603 97.9987 630.498 96.9667 633.532 96.3729 636.603 96.2373ZM623.717 95.1733 624.553 94.356C624.899 94.5213 625.275 94.6129 625.657 94.6253 627.977 94.5089 630.253 93.9448 632.359 92.964 633.871 92.3086 635.448 91.8125 637.064 91.484L637.957 92.3773 638.711 91.6227 632.337 85.2493 623.189 94.212ZM632.331 86.7493 636.167 90.588C634.733 90.9386 633.328 91.4013 631.967 91.972 629.986 92.9036 627.843 93.4424 625.657 93.5587 625.573 93.5521 625.49 93.5387 625.408 93.5187Z" fill="#f65252"/></g></svg>