<svg width="64" height="64" xmlns="http://www.w3.org/2000/svg" xmlns:xlink="http://www.w3.org/1999/xlink" xml:space="preserve" overflow="hidden"><defs><clipPath id="clip0"><rect x="72" y="440" width="64" height="64"/></clipPath></defs><g clip-path="url(#clip0)" transform="translate(-72 -440)"><path d="M104 500.299C104.297 500.298 104.585 500.194 104.813 500.003L131.88 477.449C132.649 476.807 132.753 475.663 132.111 474.893 132.041 474.81 131.964 474.733 131.88 474.663L120.224 464.929C119.857 464.621 119.311 464.669 119.003 465.036 118.872 465.192 118.8 465.389 118.8 465.593L118.8 469.459C118.799 470.546 119.28 471.578 120.115 472.275L123.745 475.412 104.133 491.592C104.068 491.665 103.956 491.671 103.883 491.606 103.878 491.601 103.874 491.597 103.869 491.592L84.2547 475.316 87.8853 472.275C88.7196 471.578 89.2013 470.546 89.2 469.459L89.2 465.592C89.1996 465.113 88.8112 464.726 88.3325 464.726 88.1295 464.726 87.9331 464.798 87.7773 464.928L76.12 474.663C75.3511 475.304 75.248 476.448 75.8896 477.217 75.9601 477.301 76.0381 477.379 76.1227 477.449L103.184 500C103.413 500.192 103.702 500.297 104 500.297ZM76.5333 476.056C76.5335 475.834 76.6327 475.623 76.804 475.481L88.1333 466.021 88.1333 469.459C88.134 470.23 87.7921 470.962 87.2 471.456L83.4227 474.645C83.0278 475.127 83.0963 475.837 83.576 476.235L103.189 492.415C103.664 492.79 104.335 492.79 104.809 492.415L124.424 476.235C124.905 475.836 124.972 475.123 124.575 474.641L120.8 471.456C120.208 470.962 119.866 470.23 119.867 469.459L119.867 466.021 131.196 475.48C131.514 475.744 131.557 476.216 131.293 476.533 131.264 476.569 131.231 476.601 131.196 476.631L104.131 499.184C104.054 499.246 103.945 499.246 103.868 499.184L76.804 476.631C76.6332 476.489 76.5345 476.278 76.5347 476.056ZM99.0933 444.133 95.084 444.133C94.1911 444.134 93.4675 444.858 93.4667 445.751L93.4667 468.807C93.4676 469.199 93.6073 469.577 93.8613 469.876L104 481.425 114.147 469.867C114.396 469.57 114.533 469.195 114.533 468.807L114.533 450.404C114.531 448.414 112.919 446.802 110.929 446.8L104.133 446.8 104.133 472.56 99.8667 467.469 99.8667 444.907C99.8667 444.48 99.5204 444.133 99.0933 444.133ZM103.669 473.667C103.977 474.033 104.524 474.081 104.89 473.774 105.086 473.609 105.2 473.367 105.2 473.111L105.2 447.867 110.929 447.867C112.33 447.868 113.465 449.003 113.467 450.404L113.467 468.807C113.467 468.94 113.421 469.069 113.337 469.172L104 479.808 94.6693 469.181C94.5816 469.077 94.5335 468.945 94.5333 468.808L94.5333 445.749C94.534 445.445 94.7801 445.199 95.084 445.199L98.8 445.199 98.8 467.856Z" fill="#000000"/></g></svg>