<svg width="64" height="64" xmlns="http://www.w3.org/2000/svg" xmlns:xlink="http://www.w3.org/1999/xlink" xml:space="preserve" overflow="hidden"><defs><clipPath id="clip0"><rect x="499" y="80" width="64" height="64"/></clipPath></defs><g clip-path="url(#clip0)" transform="translate(-499 -80)"><path d="M562.941 111.3C560.179 106.687 553.299 102.845 542.488 99.884 542.061 99.768 541.747 99.68 541.56 99.6213 537.696 98.3933 533.703 97.1227 531.539 94.8093L531.12 94.3613 530.733 94.8387C527.569 98.7653 522.596 100.277 517.331 101.879 510.864 103.845 504.176 105.879 499.584 112.479L498.977 113.351 500.039 113.317C510.855 112.977 514.389 117.117 518.513 121.939 521.763 126.183 525.959 129.609 530.767 131.945L531.137 132.119 531.401 131.807C537.455 124.653 544.227 122.084 550.239 119.867L550.333 119.867 550.333 119.832 550.513 119.765C555.761 117.832 560.293 116.163 562.937 111.853L563.107 111.577ZM550.395 103.628C548.353 108.377 545.063 110.651 541.127 112.375 538.417 110.79 535.803 109.047 533.3 107.153 536.753 106.122 539.689 103.825 541.52 100.721 541.704 100.775 541.923 100.835 542.208 100.913 544.987 101.66 547.72 102.566 550.395 103.628ZM536.724 114.095C534.027 115.013 531.408 116.148 528.893 117.487 527.104 115.896 525.408 114.205 523.813 112.42 523.046 111.576 522.26 110.749 521.456 109.94 523.055 109.48 524.765 109.147 526.509 108.807 528.371 108.447 530.252 108.079 532.059 107.551 534.566 109.48 537.182 111.263 539.895 112.891 538.871 113.303 537.812 113.693 536.724 114.093ZM541.044 113.564C541.753 113.972 542.501 114.384 543.279 114.8L537.889 114.8C538.951 114.412 540.003 114 541.045 113.564ZM513.737 115.676C514.174 114.764 514.755 113.928 515.457 113.2L523.081 113.2C523.991 114.198 524.922 115.176 525.875 116.133L514.341 116.133C514.144 115.978 513.943 115.825 513.737 115.676ZM512.847 115.075C511.553 114.262 510.153 113.631 508.687 113.2L514.04 113.2C513.578 113.781 513.178 114.41 512.847 115.075ZM522.091 112.133 516.681 112.133C517.791 111.347 519.013 110.731 520.305 110.307 520.892 110.873 521.483 111.483 522.092 112.133ZM540.473 100.393C540.251 100.763 540.01 101.121 539.751 101.467L525.789 101.467C525.349 101.16 524.896 100.857 524.437 100.557 525.766 100.007 527.039 99.3288 528.237 98.5333L535.352 98.5333C537.025 99.2417 538.734 99.8627 540.472 100.393ZM538.86 102.533C537.655 103.776 536.22 104.772 534.635 105.467L531.099 105.467 530.384 104.912C529.337 104.097 528.317 103.305 527.275 102.533ZM531.184 95.9613C531.811 96.536 532.499 97.0412 533.235 97.468L529.633 97.468C530.187 97.0047 530.705 96.5011 531.184 95.9613ZM517.641 102.899C519.569 102.312 521.459 101.736 523.245 101.051 525.569 102.521 527.595 104.091 529.729 105.753 530.144 106.076 530.564 106.403 530.992 106.733 529.457 107.143 527.875 107.455 526.305 107.76 524.372 108.099 522.46 108.547 520.577 109.101 517.88 106.372 514.082 105.026 510.268 105.448 512.677 104.463 515.138 103.612 517.641 102.899ZM507.085 107.04C511.977 105.875 515.037 106.473 517.625 108.133L505.389 108.133C505.941 107.74 506.509 107.377 507.085 107.04ZM504.011 109.2 519.08 109.2C519.196 109.296 519.309 109.4 519.424 109.499 517.793 110.076 516.293 110.972 515.011 112.133L501.169 112.133C502.013 111.061 502.964 110.078 504.009 109.2ZM515.583 117.2 526.983 117.2C527.288 117.484 527.602 117.77 527.925 118.056 526.909 118.679 525.937 119.373 525.019 120.133L518.365 120.133C517.491 119.106 516.562 118.127 515.583 117.2ZM519.285 121.2 523.808 121.2C522.984 121.99 522.217 122.839 521.515 123.739 520.769 122.921 520.038 122.089 519.323 121.244ZM530.855 130.805C527.632 129.247 524.719 127.116 522.259 124.516 524.043 122.206 526.252 120.259 528.768 118.78 531.56 121.11 534.673 123.025 538.012 124.467 535.349 126.244 532.941 128.376 530.855 130.805ZM540.769 122.8 536.944 122.8C535.202 121.955 533.529 120.974 531.941 119.867L547.213 119.867C545.003 120.7 542.851 121.68 540.771 122.8ZM550.143 118.765 550.048 118.8 530.499 118.8C530.25 118.608 530.004 118.413 529.76 118.215 531.46 117.317 533.219 116.532 535.023 115.867L545.335 115.867C547.172 116.789 549.035 117.659 550.921 118.476L550.143 118.765ZM552.357 117.935C548.903 116.487 545.533 114.847 542.261 113.024 546.363 111.343 549.639 108.115 551.379 104.037 556.532 106.24 560.048 108.759 561.853 111.571 559.753 114.784 556.352 116.405 552.357 117.935Z" fill="#f65252"/></g></svg>