<svg width="64" height="64" xmlns="http://www.w3.org/2000/svg" xmlns:xlink="http://www.w3.org/1999/xlink" xml:space="preserve" overflow="hidden"><defs><clipPath id="clip0"><rect x="179" y="440" width="64" height="64"/></clipPath></defs><g clip-path="url(#clip0)" transform="translate(-179 -440)"><path d="M190.867 451.867 201.533 451.867 201.533 445.467 184.467 445.467 184.467 462.533 190.867 462.533ZM189.8 461.467 185.533 461.467 185.533 446.533 200.467 446.533 200.467 450.8 189.8 450.8ZM190.867 466.8 184.467 466.8 184.467 498.533 220.2 498.533 220.2 492.133 190.867 492.133ZM219.133 493.2 219.133 497.467 185.533 497.467 185.533 467.867 189.8 467.867 189.8 493.2ZM205.8 445.467 205.8 451.867 231.133 451.867 231.133 492.133 224.467 492.133 224.467 498.533 237.533 498.533 237.533 445.467ZM236.467 497.467 225.533 497.467 225.533 493.2 232.2 493.2 232.2 450.8 206.867 450.8 206.867 446.533 236.467 446.533Z" fill="#ffffff"/></g></svg>