<svg width="64" height="64" xmlns="http://www.w3.org/2000/svg" xmlns:xlink="http://www.w3.org/1999/xlink" xml:space="preserve" overflow="hidden"><defs><clipPath id="clip0"><rect x="72" y="320" width="64" height="64"/></clipPath></defs><g clip-path="url(#clip0)" transform="translate(-72 -320)"><path d="M80.7947 337.549 81.5493 336.795 77.9533 333.2 79.6 333.2C80.4837 333.2 81.2 332.484 81.2 331.6L81.2 328.4C81.2 327.516 80.4837 326.8 79.6 326.8L73.7333 326.8C72.8497 326.8 72.1333 327.516 72.1333 328.4L72.1333 331.6C72.1333 332.484 72.8497 333.2 73.7333 333.2L76.4453 333.2ZM73.2 331.6 73.2 328.4C73.2 328.105 73.4388 327.867 73.7333 327.867L79.6 327.867C79.8945 327.867 80.1333 328.105 80.1333 328.4L80.1333 331.6C80.1333 331.895 79.8945 332.133 79.6 332.133L73.7333 332.133C73.4388 332.133 73.2 331.895 73.2 331.6ZM103.067 326.533 105.467 326.533 105.467 330.667 106.533 330.667 106.533 326.533 108.933 326.533C109.817 326.533 110.533 325.817 110.533 324.933L110.533 321.733C110.533 320.85 109.817 320.133 108.933 320.133L103.067 320.133C102.183 320.133 101.467 320.85 101.467 321.733L101.467 324.933C101.467 325.817 102.183 326.533 103.067 326.533ZM102.533 321.733C102.533 321.439 102.772 321.2 103.067 321.2L108.933 321.2C109.228 321.2 109.467 321.439 109.467 321.733L109.467 324.933C109.467 325.228 109.228 325.467 108.933 325.467L106.533 325.467 106.533 325.333 105.467 325.333 105.467 325.467 103.067 325.467C102.772 325.467 102.533 325.228 102.533 324.933ZM134.267 326.8 128.4 326.8C127.516 326.8 126.8 327.516 126.8 328.4L126.8 331.6C126.8 332.484 127.516 333.2 128.4 333.2L130.047 333.2 126.451 336.795 127.205 337.549 131.555 333.2 134.267 333.2C135.15 333.2 135.867 332.484 135.867 331.6L135.867 328.4C135.867 327.516 135.15 326.8 134.267 326.8ZM134.8 331.6C134.8 331.895 134.561 332.133 134.267 332.133L128.4 332.133C128.105 332.133 127.867 331.895 127.867 331.6L127.867 328.4C127.867 328.105 128.105 327.867 128.4 327.867L134.267 327.867C134.561 327.867 134.8 328.105 134.8 328.4ZM133.2 358.755C133.187 363.719 130.36 368.246 125.907 370.439L125.428 369.485C129.521 367.473 132.12 363.315 132.135 358.755 132.083 352.507 127.3 347.317 121.077 346.757L120.643 346.712 120.601 346.279C119.945 339.484 114.169 334.555 106.867 334.555 101.832 334.349 97.1051 336.976 94.6213 341.36L94.4027 341.772 93.9653 341.609C93.0491 341.266 92.0785 341.089 91.1 341.088 86.7027 341.039 83.0948 344.557 83.0333 348.955 83.0333 349.208 83.048 349.461 83.0733 349.709L83.112 350.111 82.736 350.257C77.2799 352.282 74.4982 358.346 76.5229 363.802 77.175 365.56 78.2842 367.111 79.736 368.297 81.7282 369.93 84.2244 370.822 86.8 370.821L89.3333 370.821 89.3333 371.888 86.8 371.888C83.9766 371.887 81.2407 370.909 79.0573 369.119 74.0981 365.063 73.3657 357.755 77.4215 352.796 78.6376 351.309 80.204 350.147 81.98 349.415 81.9711 349.263 81.9667 349.109 81.9667 348.955 82.0282 343.968 86.1136 339.972 91.1 340.021 92.0508 340.022 92.9957 340.169 93.9013 340.459 96.6428 335.96 101.602 333.293 106.867 333.488 114.577 333.488 120.709 338.617 121.613 345.747 128.195 346.555 133.155 352.123 133.2 358.755ZM118.419 370.021 123.019 372.848 107.333 382.493 91.648 372.849 96.248 370.021 96.8053 370.929 93.6853 372.849 97.7787 375.367C99.0504 374.553 100.405 373.875 101.819 373.345L102.192 374.344C101.016 374.791 99.8839 375.345 98.8093 375.999L107.333 381.24 114.696 376.713 111.576 374.795 112.133 373.887 115.715 376.087 119.115 373.997C117.713 373.541 116.273 373.209 114.813 373.005L114.955 371.948C116.788 372.189 118.59 372.625 120.331 373.249L120.981 372.849 117.861 370.929ZM91.648 356.484 107.333 366.129 123.019 356.484 107.333 346.84ZM93.6853 356.484 103.112 350.689C104.574 351.64 105.969 352.689 107.289 353.828 107.443 353.961 107.524 354.158 107.508 354.36 107.442 354.86 107.31 355.348 107.116 355.813 106.961 356.167 106.86 356.543 106.817 356.927 106.897 357.671 107.346 358.325 108.012 358.667 108.509 359.029 108.815 359.269 108.815 359.633 108.784 359.969 108.657 360.289 108.451 360.556 108.048 361.128 107.826 361.807 107.815 362.507 107.879 363.111 108.121 363.684 108.509 364.152L107.333 364.875ZM109.425 363.591C109.168 363.273 108.983 362.904 108.881 362.508 108.896 362.004 109.063 361.517 109.361 361.111 109.675 360.68 109.855 360.167 109.881 359.635 109.806 358.854 109.339 358.165 108.641 357.805 108.171 357.464 107.884 357.237 107.884 356.932 107.945 356.673 108.024 356.419 108.121 356.172 108.364 355.594 108.517 354.983 108.575 354.359 108.591 353.847 108.376 353.356 107.988 353.023 106.755 351.963 105.457 350.98 104.103 350.08L107.333 348.093 120.981 356.484ZM104.367 354C104.367 354.571 103.904 355.033 103.333 355.033 102.763 355.033 102.3 354.571 102.3 354 102.3 353.429 102.763 352.967 103.333 352.967 103.904 352.967 104.366 353.43 104.367 354ZM102 356.8C101.337 356.8 100.8 357.337 100.8 358 100.8 358.663 101.337 359.2 102 359.2 102.663 359.2 103.2 358.663 103.2 358 103.199 357.338 102.662 356.801 102 356.8ZM101.867 358C101.867 357.926 101.926 357.867 102 357.867 102.074 357.867 102.133 357.926 102.133 358 102.133 358.147 101.867 358.147 101.867 358ZM114 357.867C114.663 357.867 115.2 357.329 115.2 356.667 115.2 356.004 114.663 355.467 114 355.467 113.337 355.467 112.8 356.004 112.8 356.667 112.801 357.329 113.338 357.866 114 357.867ZM114 356.533C114.074 356.533 114.133 356.593 114.133 356.667 114.133 356.813 113.867 356.813 113.867 356.667 113.867 356.593 113.926 356.533 114 356.533ZM117.861 362.764 117.863 362.765 104.215 371.157 97.0587 366.757 100.471 364.66 99.9107 363.751 96.04 366.131 93.6853 364.683 96.8053 362.764 96.248 361.856 91.648 364.683 107.333 374.328 123.019 364.683 118.419 361.856ZM107.333 373.075 105.233 371.784 118.881 363.392 120.981 364.683Z" fill="#ffffff"/></g></svg>