<svg width="64" height="64" xmlns="http://www.w3.org/2000/svg" xmlns:xlink="http://www.w3.org/1999/xlink" xml:space="preserve" overflow="hidden"><defs><clipPath id="clip0"><rect x="1032" y="320" width="64" height="64"/></clipPath></defs><g clip-path="url(#clip0)" transform="translate(-1032 -320)"><path d="M1064.16 358.867 1064.23 358.992C1064.43 359.334 1064.87 359.451 1065.21 359.253L1070.62 356.132C1072.21 355.207 1073.2 353.503 1073.2 351.659L1073.2 349.271C1073.19 347.598 1072.3 346.053 1070.86 345.211L1048.82 332.371C1048.1 331.952 1047.21 331.947 1046.49 332.357L1039.41 336.372C1039.03 336.586 1038.8 336.984 1038.8 337.416L1038.8 364.987C1038.8 365.416 1039.03 365.812 1039.4 366.027L1063.52 379.873C1064.23 380.28 1065.11 380.28 1065.82 379.873L1088.99 366.567C1089.94 366.018 1090.53 365.002 1090.53 363.901L1090.53 338.257C1090.53 337.25 1089.99 336.321 1089.12 335.819L1066.29 322.713C1065.92 322.501 1065.47 322.501 1065.1 322.715L1060.22 325.531C1059.64 325.862 1059.45 326.596 1059.78 327.17 1059.88 327.354 1060.04 327.507 1060.22 327.612L1079.85 338.852C1081.67 339.899 1082.8 341.84 1082.8 343.943L1082.8 360.063C1082.8 360.295 1082.67 360.509 1082.47 360.623L1068.49 368.463C1066.12 369.826 1063.21 369.826 1060.84 368.463L1048.16 361.352C1047.16 360.788 1046.53 359.725 1046.53 358.571L1046.53 341.543 1063.98 351.617C1064.08 351.67 1064.13 351.768 1064.13 351.875L1064.13 358.629ZM1045.47 339.696 1045.47 358.572C1045.47 360.112 1046.3 361.531 1047.64 362.284L1060.31 369.387C1063.01 370.938 1066.33 370.938 1069.03 369.387L1082.99 361.555C1083.53 361.252 1083.87 360.682 1083.87 360.063L1083.87 343.943C1083.86 341.458 1082.53 339.164 1080.38 337.927L1060.75 326.687C1060.71 326.663 1060.69 326.618 1060.69 326.571 1060.69 326.523 1060.71 326.479 1060.75 326.455L1065.63 323.639C1065.67 323.616 1065.72 323.616 1065.76 323.639L1088.59 336.745C1089.13 337.056 1089.47 337.633 1089.47 338.257L1089.47 363.9C1089.47 364.619 1089.08 365.282 1088.46 365.641L1065.29 378.947C1064.9 379.165 1064.43 379.165 1064.05 378.947L1039.93 365.101C1039.89 365.077 1039.87 365.033 1039.87 364.985L1039.87 337.417C1039.87 337.369 1039.89 337.324 1039.93 337.3L1047.01 333.284C1047.41 333.06 1047.89 333.063 1048.28 333.292L1070.32 346.132C1071.44 346.782 1072.13 347.977 1072.13 349.271L1072.13 351.659C1072.13 353.122 1071.35 354.474 1070.08 355.208L1065.2 358.029 1065.2 351.875C1065.2 351.388 1064.94 350.939 1064.52 350.695Z" fill="#ffffff"/></g></svg>