<svg width="64" height="64" xmlns="http://www.w3.org/2000/svg" xmlns:xlink="http://www.w3.org/1999/xlink" xml:space="preserve" overflow="hidden"><defs><clipPath id="clip0"><rect x="179" y="80" width="64" height="64"/></clipPath></defs><g clip-path="url(#clip0)" transform="translate(-179 -80)"><path d="M211 111.867C208.865 111.867 207.133 110.135 207.133 108 207.133 105.865 208.865 104.133 211 104.133 213.135 104.133 214.867 105.865 214.867 108 214.864 110.135 213.135 111.864 211 111.867ZM211 105.2C209.454 105.2 208.2 106.454 208.2 108 208.2 109.546 209.454 110.8 211 110.8 212.546 110.8 213.8 109.546 213.8 108 213.798 106.455 212.545 105.202 211 105.2ZM211 122.533C208.865 122.533 207.133 120.802 207.133 118.667 207.133 116.531 208.865 114.8 211 114.8 213.135 114.8 214.867 116.531 214.867 118.667 214.864 120.801 213.135 122.531 211 122.533ZM211 115.867C209.454 115.867 208.2 117.12 208.2 118.667 208.2 120.213 209.454 121.467 211 121.467 212.546 121.467 213.8 120.213 213.8 118.667 213.798 117.121 212.545 115.869 211 115.867ZM210.997 141.243C210.778 141.243 210.56 141.199 210.357 141.115L194.284 133.973C193.842 133.78 193.641 133.265 193.834 132.823 193.924 132.618 194.089 132.455 194.296 132.368L203.124 128.411C203.621 128.193 204.185 128.187 204.687 128.393L221.041 135.547C221.422 135.708 221.6 136.147 221.439 136.527 221.362 136.708 221.218 136.851 221.036 136.927L211.655 141.112C211.447 141.199 211.223 141.245 210.997 141.245ZM195.109 133.171 210.779 140.136C210.925 140.194 211.087 140.193 211.232 140.132L219.961 136.237 204.268 129.375C204.039 129.283 203.782 129.287 203.556 129.385ZM185.665 130.579C185.553 130.578 185.441 130.555 185.337 130.512L182.689 129.084C182.226 128.88 181.876 128.483 181.733 127.997 181.58 127.497 181.658 126.953 181.947 126.516L206.7 84.912C207.016 84.3909 207.58 84.0717 208.189 84.0693L213.813 84.0693C214.422 84.0713 214.985 84.3895 215.301 84.9093L237.371 121.393C237.587 121.751 237.473 122.217 237.115 122.433 236.996 122.505 236.86 122.543 236.721 122.543L236.427 122.483 227.237 118.587C227.087 118.523 226.961 118.413 226.877 118.272L210.973 91.6907 192.432 123.263 195.876 124.94C196.154 125.065 196.331 125.342 196.329 125.647 196.331 125.962 196.142 126.247 195.851 126.369L186 130.511C185.894 130.555 185.781 130.577 185.667 130.577ZM208.188 85.136C207.953 85.1366 207.735 85.2593 207.613 85.46L182.852 127.083C182.729 127.259 182.693 127.481 182.753 127.687 182.813 127.884 182.958 128.044 183.148 128.123L185.679 129.488 194.859 125.629 190.928 123.717 210.1 91.0667C210.262 90.7918 210.557 90.6229 210.876 90.6227L211.129 90.6227C211.449 90.6233 211.745 90.7932 211.907 91.0693L227.743 117.643 235.963 121.127 214.387 85.4613C214.265 85.2601 214.047 85.1369 213.812 85.136ZM228.707 134.624C228.59 134.624 228.474 134.602 228.365 134.557L218.237 130.585C217.919 130.459 217.71 130.151 217.711 129.808L217.711 127.195C217.709 126.856 217.913 126.551 218.225 126.421L226.865 122.759C227.089 122.664 227.341 122.664 227.565 122.759L237.163 127.039C237.469 127.171 237.667 127.473 237.667 127.807L237.667 130.444C237.668 130.783 237.464 131.088 237.151 131.217L229.052 134.555C228.942 134.601 228.824 134.624 228.705 134.624ZM218.777 129.651 228.761 133.567 236.601 130.291 236.601 127.957 227.215 123.771 218.777 127.347Z" fill="#f65252"/></g></svg>